<svg xmlns="http://www.w3.org/2000/svg" xmlns:xlink="http://www.w3.org/1999/xlink" viewBox="0 0 4784.49 1855"><defs><linearGradient id="a" x1="836.2" y1="1237.32" x2="836.2" y2="617.14" gradientUnits="userSpaceOnUse"><stop offset="0" stop-color="#ffcf00"/><stop offset="0.16" stop-color="#ffcd00"/><stop offset="0.22" stop-color="#fec602"/><stop offset="0.26" stop-color="#fdbb04"/><stop offset="0.29" stop-color="#fbaa08"/><stop offset="0.32" stop-color="#f9940c"/><stop offset="0.35" stop-color="#f67811"/><stop offset="0.37" stop-color="#f35818"/><stop offset="0.39" stop-color="#ef341f"/><stop offset="0.4" stop-color="#ed1c24"/><stop offset="0.55" stop-color="#eb1c24"/><stop offset="0.61" stop-color="#e41b23"/><stop offset="0.64" stop-color="#d91a21"/><stop offset="0.68" stop-color="#c8181e"/><stop offset="0.7" stop-color="#b2151b"/><stop offset="0.73" stop-color="#961217"/><stop offset="0.75" stop-color="#760e12"/><stop offset="0.77" stop-color="#50090c"/><stop offset="0.79" stop-color="#270506"/><stop offset="0.8"/></linearGradient></defs><path d="M1837.72,987.39l-50.07-108.16a6.12,6.12,0,0,0-5.55-3.54h-31.59a6.12,6.12,0,0,0-6.12,6.11v103a6.12,6.12,0,0,1-6.11,6.12h-93.41a6.12,6.12,0,0,1-6.12-6.12V623.57a6.12,6.12,0,0,1,6.12-6.12h168.88c67.77,0,131.79,46.95,131.79,129.12,0,48.95-22.9,85.71-55.66,107a6.07,6.07,0,0,0-2,7.9L1951,982a6.12,6.12,0,0,1-5.42,9h-102.3A6.13,6.13,0,0,1,1837.72,987.39Zm-93.33-208.52a6.12,6.12,0,0,0,6.12,6.12h52c21.87,0,36.28-16,36.28-36.82s-14.41-37.35-36.28-37.35h-52a6.12,6.12,0,0,0-6.12,6.12Z"/><path d="M2173,617.45h103.21a6.11,6.11,0,0,1,5.68,3.86L2425.4,982.56a6.13,6.13,0,0,1-5.69,8.38H2315.66a6.11,6.11,0,0,1-5.76-4.07L2295.72,947a6.12,6.12,0,0,0-5.77-4.06H2159.33a6.1,6.1,0,0,0-5.76,4.06l-14.18,39.89a6.13,6.13,0,0,1-5.77,4.07h-104a6.12,6.12,0,0,1-5.68-8.38l143.46-361.25A6.13,6.13,0,0,1,2173,617.45Zm78.65,228.36a6.11,6.11,0,0,0,5.81-8l-32.06-98.16h-1.07l-32.54,98.14a6.11,6.11,0,0,0,5.81,8Z"/><path d="M2466.66,804.19c0-106.17,83.77-192.07,191.55-192.07,70.71,0,131.44,37.45,164.31,93.51a6.15,6.15,0,0,1-2.45,8.62l-85.46,43.69a6.07,6.07,0,0,1-7.76-1.92,83.86,83.86,0,0,0-69.18-36.13c-47,0-83.23,37.89-83.23,84.3s36.28,84.3,83.23,84.3a82.76,82.76,0,0,0,69.74-37.42,6.09,6.09,0,0,1,7.89-2.15l85.86,43.64a6.09,6.09,0,0,1,2.59,8.42c-32.86,57.21-94.19,95.29-165.54,95.29C2550.43,996.27,2466.66,910.37,2466.66,804.19Z"/><path d="M2888.38,804.19c0-106.17,83.76-192.07,191.54-192.07,107.24,0,191,85.9,191,192.07s-83.77,192.08-191,192.08C2972.14,996.27,2888.38,910.37,2888.38,804.19Zm275.84,0c0-50.15-36.28-88-84.83-88-48,0-84.3,37.88-84.3,88s36.28,88,84.3,88C3127.94,892.23,3164.22,854.35,3164.22,804.19Z"/><path d="M3343.29,804.19c0-106.17,83.76-192.07,191.54-192.07,107.24,0,191,85.9,191,192.07s-83.77,192.08-191,192.08C3427.05,996.27,3343.29,910.37,3343.29,804.19Zm275.84,0c0-50.15-36.28-88-84.83-88-48,0-84.3,37.88-84.3,88s36.28,88,84.3,88C3582.85,892.23,3619.13,854.35,3619.13,804.19Z"/><path d="M3822.08,617.45H3932.6a6.14,6.14,0,0,1,5.21,2.9L4049,800.28a6.12,6.12,0,0,0,11.32-3.21V623.57a6.12,6.12,0,0,1,6.12-6.12h94.47a6.12,6.12,0,0,1,6.12,6.12V984.82a6.12,6.12,0,0,1-6.12,6.12H4050.4a6.11,6.11,0,0,1-5.2-2.9L3934,808.11a6.12,6.12,0,0,0-11.32,3.21v173.5a6.11,6.11,0,0,1-6.11,6.12h-94.48a6.12,6.12,0,0,1-6.12-6.12V623.57A6.12,6.12,0,0,1,3822.08,617.45Z"/><path d="M1638.71,1129.19h36.78a72.54,72.54,0,0,1,20.58,3,55.47,55.47,0,0,1,18.62,9.53,49,49,0,0,1,13.47,16.65q5.13,10.14,5.14,24.37,0,13.77-5.14,23.83a50,50,0,0,1-13.47,16.65,57.9,57.9,0,0,1-18.62,9.84,67.9,67.9,0,0,1-20.58,3.25h-36.78Zm15,94h18.76a56.79,56.79,0,0,0,17.94-2.72,41.36,41.36,0,0,0,14.22-7.87,35.22,35.22,0,0,0,9.31-12.71,42.07,42.07,0,0,0,3.33-17.1,43.28,43.28,0,0,0-3.33-17.56,34.62,34.62,0,0,0-9.31-12.64,41.22,41.22,0,0,0-14.22-7.71,58.27,58.27,0,0,0-17.94-2.65H1653.7Z" fill="gray"/><path d="M1769.77,1138.73a8.44,8.44,0,0,1-2.78,6.5,9.47,9.47,0,0,1-6.68,2.58,9.05,9.05,0,0,1-6.6-2.65,8.68,8.68,0,0,1-2.7-6.43,8.86,8.86,0,0,1,2.7-6.59,9.08,9.08,0,0,1,6.6-2.64,9.35,9.35,0,0,1,6.68,2.64A8.71,8.71,0,0,1,1769.77,1138.73Zm-2.27,97.61h-14.22v-71.73h14.22Z" fill="gray"/><path d="M1859.36,1199.87v2.42a19.65,19.65,0,0,1-.15,2.42h-57a21.19,21.19,0,0,0,2,8.49,22.36,22.36,0,0,0,5.07,6.92,23.51,23.51,0,0,0,7.34,4.58,25.62,25.62,0,0,0,21.41-1.53,25.65,25.65,0,0,0,8.33-7.71l10,8a35.83,35.83,0,0,1-13.55,11.23,43.41,43.41,0,0,1-32.46.87,34.89,34.89,0,0,1-12-7.64,35.48,35.48,0,0,1-7.87-11.88,40.16,40.16,0,0,1-2.87-15.43,41.19,41.19,0,0,1,2.8-15.37,35.25,35.25,0,0,1,7.81-12,35.83,35.83,0,0,1,11.83-7.79,40.65,40.65,0,0,1,29-.23,29.72,29.72,0,0,1,10.92,7.42,33.48,33.48,0,0,1,6.9,11.73A46.66,46.66,0,0,1,1859.36,1199.87Zm-14.53-5.75a27.32,27.32,0,0,0-1.43-7.95,18.26,18.26,0,0,0-3.79-6.43,17.69,17.69,0,0,0-6.2-4.31,22,22,0,0,0-8.7-1.59,23,23,0,0,0-8.56,1.59,22.2,22.2,0,0,0-7,4.31,22.9,22.9,0,0,0-4.84,6.43,20.54,20.54,0,0,0-2.19,7.95Z" fill="gray"/><path d="M1932.61,1236.34h-15V1129.19H1952a65.73,65.73,0,0,1,14.68,1.59,36.46,36.46,0,0,1,12.19,5.07,24.85,24.85,0,0,1,8.24,9.16,29.08,29.08,0,0,1,3,13.85q0,11.79-7.27,19.06t-18.76,9.24l30,49.18h-18.16l-27.24-47.67h-16Zm0-60.23h17.25a50.65,50.65,0,0,0,9.84-.91,24.91,24.91,0,0,0,8-3,16.43,16.43,0,0,0,5.37-21.49,15.16,15.16,0,0,0-5.22-5.22,22.83,22.83,0,0,0-7.65-2.8,49,49,0,0,0-9.23-.83h-18.31Z" fill="gray"/><path d="M2052.62,1189.88q0-8-4.84-11.88t-12.86-3.86a28.14,28.14,0,0,0-11.43,2.35,28.85,28.85,0,0,0-9,6l-7.57-9.08a38.19,38.19,0,0,1,12.94-7.87,46.39,46.39,0,0,1,16.42-2.87,37.13,37.13,0,0,1,13.39,2.19,25.4,25.4,0,0,1,9.31,6,24.49,24.49,0,0,1,5.45,8.93,33,33,0,0,1,1.81,11v31.33q0,3.63.23,7.64a39.46,39.46,0,0,0,.83,6.58h-12.86a44.63,44.63,0,0,1-1.21-10.29h-.46a27.44,27.44,0,0,1-9.91,8.93,29.7,29.7,0,0,1-14.15,3.18,36.87,36.87,0,0,1-8.85-1.14,25.45,25.45,0,0,1-8.4-3.71,20.81,20.81,0,0,1-6.28-6.81,20.18,20.18,0,0,1-2.5-10.44q0-8.18,4.39-12.94a27.76,27.76,0,0,1,11.5-7.26,65,65,0,0,1,16-3.26q8.94-.75,18-.75Zm-3.48,12.26q-5.3,0-11,.45a50.42,50.42,0,0,0-10.29,1.82,19.47,19.47,0,0,0-7.64,4.08,9.3,9.3,0,0,0-3,7.27,10.05,10.05,0,0,0,1.29,5.3,10.66,10.66,0,0,0,3.4,3.48,13.81,13.81,0,0,0,4.69,1.89,26.47,26.47,0,0,0,5.3.53q10,0,15.36-6t5.37-15.06v-3.78Z" fill="gray"/><path d="M2147.21,1225a26.43,26.43,0,0,1-11.12,9.91,33.5,33.5,0,0,1-14.76,3.41,36.71,36.71,0,0,1-15-3,33.51,33.51,0,0,1-11.35-8.1,36.54,36.54,0,0,1-7.27-12.11,42.53,42.53,0,0,1-2.57-14.83,41.92,41.92,0,0,1,2.57-14.75,36.11,36.11,0,0,1,7.34-12,33.55,33.55,0,0,1,11.43-8,36.76,36.76,0,0,1,14.68-2.87,30.34,30.34,0,0,1,15.28,3.71,31.68,31.68,0,0,1,10.3,9h.3v-53.42h14.22v114.41h-13.77V1225ZM2100,1200.4a31.07,31.07,0,0,0,1.52,9.65,24.51,24.51,0,0,0,4.54,8.31,23.83,23.83,0,0,0,27.61,5.88,23.76,23.76,0,0,0,7.65-5.66,25.6,25.6,0,0,0,4.92-8.22,28.52,28.52,0,0,0,0-19.62,26.65,26.65,0,0,0-4.92-8.3,23.39,23.39,0,0,0-7.65-5.73,22.84,22.84,0,0,0-9.91-2.12,23.49,23.49,0,0,0-10.29,2.12,21.85,21.85,0,0,0-7.41,5.73,24.47,24.47,0,0,0-4.54,8.3A31.18,31.18,0,0,0,2100,1200.4Z" fill="gray"/><path d="M2202.75,1138.73a8.48,8.48,0,0,1-2.78,6.5,9.47,9.47,0,0,1-6.68,2.58,9.05,9.05,0,0,1-6.6-2.65,8.69,8.69,0,0,1-2.71-6.43,8.87,8.87,0,0,1,2.71-6.59,9.08,9.08,0,0,1,6.6-2.64,9.35,9.35,0,0,1,6.68,2.64A8.75,8.75,0,0,1,2202.75,1138.73Zm-2.27,97.61h-14.23v-71.73h14.23Z" fill="gray"/><path d="M2297.94,1200.32a38.74,38.74,0,0,1-3,15.29,36.38,36.38,0,0,1-8.17,12,37,37,0,0,1-12.34,7.87,43.12,43.12,0,0,1-30.57,0,36.12,36.12,0,0,1-12.26-7.87,36.79,36.79,0,0,1-8.09-12,38.74,38.74,0,0,1-2.95-15.29,38.2,38.2,0,0,1,2.95-15.21,36.14,36.14,0,0,1,8.09-11.88,36.7,36.7,0,0,1,12.26-7.79,43.12,43.12,0,0,1,30.57,0,37.57,37.57,0,0,1,12.34,7.79,35.75,35.75,0,0,1,8.17,11.88A38.2,38.2,0,0,1,2297.94,1200.32Zm-14.83.08a30,30,0,0,0-1.6-9.81,24.73,24.73,0,0,0-4.62-8.22,22.31,22.31,0,0,0-7.52-5.66,25.84,25.84,0,0,0-20.5,0,22.17,22.17,0,0,0-7.51,5.66,24.58,24.58,0,0,0-4.63,8.22,31.06,31.06,0,0,0,0,19.62,25.56,25.56,0,0,0,4.63,8.3,21.85,21.85,0,0,0,7.51,5.73,26,26,0,0,0,20.5,0,22,22,0,0,0,7.52-5.73,25.72,25.72,0,0,0,4.62-8.3A30,30,0,0,0,2283.11,1200.4Z" fill="gray"/><path d="M2332.14,1236.34h-14.22V1121.93h14.22Z" fill="gray"/><path d="M2429.6,1200.32a38.74,38.74,0,0,1-2.95,15.29,36.38,36.38,0,0,1-8.17,12,36.87,36.87,0,0,1-12.34,7.87,43.12,43.12,0,0,1-30.57,0,36,36,0,0,1-12.25-7.87,37,37,0,0,1-8.1-12,38.74,38.74,0,0,1-2.95-15.29,38.2,38.2,0,0,1,2.95-15.21,35.83,35.83,0,0,1,20.35-19.67,43.12,43.12,0,0,1,30.57,0,37.47,37.47,0,0,1,12.34,7.79,35.75,35.75,0,0,1,8.17,11.88A38.2,38.2,0,0,1,2429.6,1200.32Zm-14.83.08a30.29,30.29,0,0,0-1.59-9.81,24.93,24.93,0,0,0-4.63-8.22,22.21,22.21,0,0,0-7.52-5.66,25.81,25.81,0,0,0-20.49,0,22.21,22.21,0,0,0-7.52,5.66,24.75,24.75,0,0,0-4.63,8.22,31.06,31.06,0,0,0,0,19.62,25.75,25.75,0,0,0,4.63,8.3,21.89,21.89,0,0,0,7.52,5.73,25.93,25.93,0,0,0,20.49,0,21.89,21.89,0,0,0,7.52-5.73,25.94,25.94,0,0,0,4.63-8.3A30.29,30.29,0,0,0,2414.77,1200.4Z" fill="gray"/><path d="M2454.87,1248.6a34.17,34.17,0,0,0,11.73,8.47,34.76,34.76,0,0,0,14.46,3.18,30.84,30.84,0,0,0,12-2,20,20,0,0,0,7.8-5.6,21.78,21.78,0,0,0,4.23-8.4,40.46,40.46,0,0,0,1.29-10.44v-9.23h-.3a25.35,25.35,0,0,1-10.75,9.23,33.91,33.91,0,0,1-14.53,3.18,37.46,37.46,0,0,1-14.9-2.88,33.43,33.43,0,0,1-11.43-7.87,35.23,35.23,0,0,1-7.26-11.73,40,40,0,0,1-2.58-14.45,40.65,40.65,0,0,1,2.58-14.53,35.9,35.9,0,0,1,7.26-11.88,34.1,34.1,0,0,1,11.35-8,36.16,36.16,0,0,1,14.83-2.95,34.09,34.09,0,0,1,14.76,3.33,25.39,25.39,0,0,1,11.12,10.14h.3v-11.5h13.77v68.1a57,57,0,0,1-2,15.06,32.79,32.79,0,0,1-6.66,12.71,33.5,33.5,0,0,1-12.26,8.85q-7.58,3.33-18.77,3.33a55.35,55.35,0,0,1-18.84-3.4,48.12,48.12,0,0,1-16.27-9.61Zm4.24-48.88a28.38,28.38,0,0,0,1.6,9.53,23.46,23.46,0,0,0,12.22,13.62,22.69,22.69,0,0,0,10,2.12,24.89,24.89,0,0,0,10-2,23,23,0,0,0,7.74-5.37,24,24,0,0,0,4.93-8,27.88,27.88,0,0,0,1.75-9.91,26.87,26.87,0,0,0-1.75-9.69,24.29,24.29,0,0,0-12.75-13.54,25.32,25.32,0,0,0-20,0,23.25,23.25,0,0,0-7.52,5.44,22.85,22.85,0,0,0-4.7,8A29.47,29.47,0,0,0,2459.11,1199.72Z" fill="gray"/><path d="M2561.57,1138.73a8.48,8.48,0,0,1-2.78,6.5,9.47,9.47,0,0,1-6.68,2.58,9.07,9.07,0,0,1-6.61-2.65,8.68,8.68,0,0,1-2.7-6.43,8.86,8.86,0,0,1,2.7-6.59,9.11,9.11,0,0,1,6.61-2.64,9.35,9.35,0,0,1,6.68,2.64A8.75,8.75,0,0,1,2561.57,1138.73Zm-2.27,97.61h-14.23v-71.73h14.23Z" fill="gray"/><path d="M2651.16,1199.87v2.42a19.65,19.65,0,0,1-.15,2.42H2594a21.19,21.19,0,0,0,2,8.49,22.52,22.52,0,0,0,5.07,6.92,23.77,23.77,0,0,0,16.2,6.23,24,24,0,0,0,12.56-3.18,25.61,25.61,0,0,0,8.32-7.71l10,8a35.81,35.81,0,0,1-13.54,11.23,43.44,43.44,0,0,1-32.47.87,34.85,34.85,0,0,1-11.95-7.64,35.34,35.34,0,0,1-7.87-11.88,40,40,0,0,1-2.88-15.43,41.2,41.2,0,0,1,2.81-15.37,35.11,35.11,0,0,1,7.81-12,35.73,35.73,0,0,1,11.83-7.79,40.62,40.62,0,0,1,29-.23,29.55,29.55,0,0,1,10.92,7.42,33.48,33.48,0,0,1,6.9,11.73A46.4,46.4,0,0,1,2651.16,1199.87Zm-14.53-5.75a27,27,0,0,0-1.44-7.95,18.38,18.38,0,0,0-3.78-6.43,17.82,17.82,0,0,0-6.21-4.31,21.93,21.93,0,0,0-8.7-1.59,23,23,0,0,0-8.55,1.59,22.2,22.2,0,0,0-7,4.31,22.71,22.71,0,0,0-4.84,6.43,20.38,20.38,0,0,0-2.2,7.95Z" fill="gray"/><path d="M2724.41,1176.41h.3l47.82-47.22h20.73l-52.06,49,55.24,58.11H2775L2724.71,1181h-.3v55.39h-15V1129.19h15Z" fill="gray"/><path d="M2876.5,1200.32a38.74,38.74,0,0,1-2.95,15.29,36.38,36.38,0,0,1-8.17,12,37,37,0,0,1-12.34,7.87,43.12,43.12,0,0,1-30.57,0,36.12,36.12,0,0,1-12.26-7.87,36.94,36.94,0,0,1-8.09-12,38.74,38.74,0,0,1-2.95-15.29,38.2,38.2,0,0,1,2.95-15.21,36.3,36.3,0,0,1,8.09-11.88,36.7,36.7,0,0,1,12.26-7.79,43.12,43.12,0,0,1,30.57,0,37.57,37.57,0,0,1,12.34,7.79,35.75,35.75,0,0,1,8.17,11.88A38.2,38.2,0,0,1,2876.5,1200.32Zm-14.83.08a30.29,30.29,0,0,0-1.59-9.81,24.93,24.93,0,0,0-4.63-8.22,22.21,22.21,0,0,0-7.52-5.66,25.84,25.84,0,0,0-20.5,0,22.17,22.17,0,0,0-7.51,5.66,24.58,24.58,0,0,0-4.63,8.22,31.06,31.06,0,0,0,0,19.62,25.56,25.56,0,0,0,4.63,8.3,21.85,21.85,0,0,0,7.51,5.73,26,26,0,0,0,20.5,0,21.89,21.89,0,0,0,7.52-5.73,25.94,25.94,0,0,0,4.63-8.3A30.29,30.29,0,0,0,2861.67,1200.4Z" fill="gray"/><path d="M2968.82,1200.32a38.74,38.74,0,0,1-3,15.29,36.23,36.23,0,0,1-8.17,12,36.92,36.92,0,0,1-12.33,7.87,43.12,43.12,0,0,1-30.57,0,36,36,0,0,1-12.26-7.87,37,37,0,0,1-8.1-12,38.92,38.92,0,0,1-2.95-15.29,38.38,38.38,0,0,1,2.95-15.21,35.81,35.81,0,0,1,20.36-19.67,43.12,43.12,0,0,1,30.57,0,37.53,37.53,0,0,1,12.33,7.79,35.61,35.61,0,0,1,8.17,11.88A38.21,38.21,0,0,1,2968.82,1200.32Zm-14.84.08a30.29,30.29,0,0,0-1.59-9.81,24.58,24.58,0,0,0-4.63-8.22,22.17,22.17,0,0,0-7.51-5.66,25.84,25.84,0,0,0-20.5,0,22.21,22.21,0,0,0-7.52,5.66,24.93,24.93,0,0,0-4.63,8.22,31.06,31.06,0,0,0,0,19.62,25.94,25.94,0,0,0,4.63,8.3,21.89,21.89,0,0,0,7.52,5.73,26,26,0,0,0,20.5,0,21.85,21.85,0,0,0,7.51-5.73,25.56,25.56,0,0,0,4.63-8.3A30.29,30.29,0,0,0,2954,1200.4Z" fill="gray"/><path d="M3002.71,1272.66h-14.22V1164.61h13.92v11.19h.46a26.51,26.51,0,0,1,10.18-9.45,31.86,31.86,0,0,1,15.63-3.71,36.08,36.08,0,0,1,14.57,2.87,33.6,33.6,0,0,1,11.32,8,36.07,36.07,0,0,1,7.32,12,41.92,41.92,0,0,1,2.57,14.75,42.53,42.53,0,0,1-2.57,14.83,36.47,36.47,0,0,1-7.24,12.11,33.53,33.53,0,0,1-11.33,8.1,36.52,36.52,0,0,1-14.94,3,32.49,32.49,0,0,1-14.49-3.33,26.24,26.24,0,0,1-10.72-9.38h-.46Zm47.22-72.34a31.25,31.25,0,0,0-1.51-9.68,24.86,24.86,0,0,0-4.54-8.33,21.92,21.92,0,0,0-7.49-5.75,24,24,0,0,0-10.37-2.12,22.84,22.84,0,0,0-9.91,2.12,23.3,23.3,0,0,0-7.64,5.75,26.49,26.49,0,0,0-4.92,8.33,28.67,28.67,0,0,0,0,19.67,25.56,25.56,0,0,0,4.92,8.25,23.64,23.64,0,0,0,7.64,5.67,22.7,22.7,0,0,0,9.91,2.12,23.28,23.28,0,0,0,10.37-2.19,22.64,22.64,0,0,0,7.49-5.83,24.81,24.81,0,0,0,4.54-8.32A31.36,31.36,0,0,0,3049.93,1200.32Z" fill="gray"/><path d="M3151.48,1199.87v2.42a19.65,19.65,0,0,1-.15,2.42h-57.06a21,21,0,0,0,2.05,8.49,22.36,22.36,0,0,0,5.07,6.92,23.46,23.46,0,0,0,7.33,4.58,25.64,25.64,0,0,0,21.42-1.53,25.61,25.61,0,0,0,8.32-7.71l10,8a35.81,35.81,0,0,1-13.54,11.23,43.44,43.44,0,0,1-32.47.87,34.85,34.85,0,0,1-12-7.64,35.34,35.34,0,0,1-7.87-11.88,40,40,0,0,1-2.88-15.43,41.2,41.2,0,0,1,2.81-15.37,35.11,35.11,0,0,1,7.81-12,35.83,35.83,0,0,1,11.83-7.79,40.62,40.62,0,0,1,29-.23,29.55,29.55,0,0,1,10.92,7.42,33.48,33.48,0,0,1,6.9,11.73A46.4,46.4,0,0,1,3151.48,1199.87Zm-14.53-5.75a27,27,0,0,0-1.44-7.95,18.38,18.38,0,0,0-3.78-6.43,17.73,17.73,0,0,0-6.21-4.31,21.93,21.93,0,0,0-8.7-1.59,23,23,0,0,0-8.55,1.59,22.2,22.2,0,0,0-7,4.31,22.71,22.71,0,0,0-4.84,6.43,20.38,20.38,0,0,0-2.2,7.95Z" fill="gray"/><path d="M3171,1172.63q-.15-4.55-.45-8H3184c.2,1.81.35,3.91.45,6.28s.15,4.31.15,5.82h.46a24.74,24.74,0,0,1,8.85-10.21,23.2,23.2,0,0,1,13.09-3.86,22.25,22.25,0,0,1,5.6.6l-.61,13.17a26.94,26.94,0,0,0-6.5-.76,19.76,19.76,0,0,0-8.93,1.9,18.09,18.09,0,0,0-6.28,5.07,21.27,21.27,0,0,0-3.71,7.34,30.84,30.84,0,0,0-1.21,8.7v37.68h-14.23V1180C3171.15,1178.13,3171.1,1175.65,3171,1172.63Z" fill="gray"/><path d="M3268.62,1189.88q0-8-4.85-11.88t-12.86-3.86a28.14,28.14,0,0,0-11.43,2.35,28.85,28.85,0,0,0-9,6l-7.57-9.08a38.28,38.28,0,0,1,12.94-7.87,46.43,46.43,0,0,1,16.42-2.87,37.19,37.19,0,0,1,13.4,2.19,25.44,25.44,0,0,1,9.3,6,24.49,24.49,0,0,1,5.45,8.93,33,33,0,0,1,1.82,11v31.33q0,3.63.22,7.64a39.33,39.33,0,0,0,.84,6.58h-12.87a44.63,44.63,0,0,1-1.21-10.29h-.45a27.6,27.6,0,0,1-9.91,8.93,29.76,29.76,0,0,1-14.15,3.18,37,37,0,0,1-8.86-1.14,25.45,25.45,0,0,1-8.4-3.71,20.92,20.92,0,0,1-6.28-6.81,20.27,20.27,0,0,1-2.49-10.44q0-8.18,4.38-12.94a27.74,27.74,0,0,1,11.51-7.26,64.86,64.86,0,0,1,16-3.26q8.92-.75,18-.75Zm-3.48,12.26c-3.54,0-7.19.15-11,.45a50.42,50.42,0,0,0-10.29,1.82,19.54,19.54,0,0,0-7.64,4.08,9.3,9.3,0,0,0-3,7.27,10.05,10.05,0,0,0,1.29,5.3,10.76,10.76,0,0,0,3.4,3.48,13.86,13.86,0,0,0,4.7,1.89,26.37,26.37,0,0,0,5.29.53q10,0,15.36-6t5.38-15.06v-3.78Z" fill="gray"/><path d="M3339.6,1176.26h-19.07v37.27c0,4.32.8,7.41,2.42,9.27s4.18,2.8,7.72,2.8a23.28,23.28,0,0,0,4.23-.42,17.06,17.06,0,0,0,4.09-1.25l.45,11.65a33.51,33.51,0,0,1-5.67,1.44,38.57,38.57,0,0,1-6.43.53q-10.14,0-15.52-5.6t-5.37-16.8v-38.89h-13.77v-11.65h13.77V1144h14.08v20.59h19.07Z" fill="gray"/><path d="M3370.92,1138.73a8.48,8.48,0,0,1-2.78,6.5,9.47,9.47,0,0,1-6.68,2.58,9.05,9.05,0,0,1-6.6-2.65,8.68,8.68,0,0,1-2.7-6.43,8.86,8.86,0,0,1,2.7-6.59,9.08,9.08,0,0,1,6.6-2.64,9.35,9.35,0,0,1,6.68,2.64A8.75,8.75,0,0,1,3370.92,1138.73Zm-2.27,97.61h-14.22v-71.73h14.22Z" fill="gray"/><path d="M3466.11,1200.32a38.74,38.74,0,0,1-3,15.29,36.38,36.38,0,0,1-8.17,12,36.87,36.87,0,0,1-12.34,7.87,43.12,43.12,0,0,1-30.57,0,36,36,0,0,1-12.25-7.87,36.81,36.81,0,0,1-8.1-12,38.74,38.74,0,0,1-2.95-15.29,38.2,38.2,0,0,1,2.95-15.21,36.17,36.17,0,0,1,8.1-11.88,36.56,36.56,0,0,1,12.25-7.79,43.12,43.12,0,0,1,30.57,0,37.47,37.47,0,0,1,12.34,7.79,35.75,35.75,0,0,1,8.17,11.88A38.2,38.2,0,0,1,3466.11,1200.32Zm-14.83.08a30.29,30.29,0,0,0-1.59-9.81,24.93,24.93,0,0,0-4.63-8.22,22.21,22.21,0,0,0-7.52-5.66,25.81,25.81,0,0,0-20.49,0,22.12,22.12,0,0,0-7.52,5.66,24.75,24.75,0,0,0-4.63,8.22,31.06,31.06,0,0,0,0,19.62,25.75,25.75,0,0,0,4.63,8.3,21.79,21.79,0,0,0,7.52,5.73,25.93,25.93,0,0,0,20.49,0,21.89,21.89,0,0,0,7.52-5.73,25.94,25.94,0,0,0,4.63-8.3A30.29,30.29,0,0,0,3451.28,1200.4Z" fill="gray"/><path d="M3498.65,1164.61c.2,1.81.35,3.86.45,6.13s.15,4.16.15,5.67h.46a20.85,20.85,0,0,1,3.71-5.37,26.46,26.46,0,0,1,5.37-4.39,26,26,0,0,1,6.66-3,26.71,26.71,0,0,1,7.56-1.06,28,28,0,0,1,12,2.34,24.21,24.21,0,0,1,8.32,6.29,25.38,25.38,0,0,1,4.92,9.23,39.26,39.26,0,0,1,1.59,11.35v44.49h-14.23v-39.8a48.08,48.08,0,0,0-.68-8.32,20,20,0,0,0-2.49-7,13.59,13.59,0,0,0-5-4.84,16.34,16.34,0,0,0-8.17-1.82,17.22,17.22,0,0,0-13.85,6.44q-5.37,6.43-5.37,17.17v38.14h-14.23V1180c0-1.91-.05-4.39-.15-7.41s-.25-5.7-.45-8Z" fill="gray"/><path d="M3628.34,1138.73a8.44,8.44,0,0,1-2.78,6.5,9.44,9.44,0,0,1-6.67,2.58,9.06,9.06,0,0,1-6.61-2.65,8.68,8.68,0,0,1-2.7-6.43,8.86,8.86,0,0,1,2.7-6.59,9.09,9.09,0,0,1,6.61-2.64,9.33,9.33,0,0,1,6.67,2.64A8.71,8.71,0,0,1,3628.34,1138.73Zm-2.27,97.61h-14.22v-71.73h14.22Z" fill="gray"/><path d="M3673.52,1166.65a24.81,24.81,0,0,1,14.15-4,25.93,25.93,0,0,1,13.09,3.33q5.82,3.33,9.15,11a25.56,25.56,0,0,1,10.14-10.67,28.27,28.27,0,0,1,14.23-3.71,27.93,27.93,0,0,1,11.95,2.34,24.25,24.25,0,0,1,8.33,6.29,25.38,25.38,0,0,1,4.92,9.23,39.26,39.26,0,0,1,1.59,11.35v44.49h-14.23v-39.8a43.48,43.48,0,0,0-.76-8.32,21.11,21.11,0,0,0-2.57-7,14,14,0,0,0-4.84-4.84,14.83,14.83,0,0,0-7.72-1.82,16.16,16.16,0,0,0-8.32,2.05,17.26,17.26,0,0,0-5.68,5.29,22.65,22.65,0,0,0-3.18,7.34,35.27,35.27,0,0,0-1,8.33v38.74h-14.23v-42.68a36.66,36.66,0,0,0-.75-7.71,15.78,15.78,0,0,0-2.58-6,12.69,12.69,0,0,0-4.69-3.94,15.8,15.8,0,0,0-7.11-1.44,16.18,16.18,0,0,0-13.09,6.44q-5.22,6.43-5.22,17.17v38.14h-14.23V1180c0-1.91,0-4.39-.15-7.41s-.25-5.7-.45-8h13.47c.2,1.81.35,3.86.45,6.13s.15,4.16.15,5.67h.45A24.28,24.28,0,0,1,3673.52,1166.65Z" fill="gray"/><path d="M3899.24,1214.85h.3v-85.66h15v107.15h-18.91L3839,1148.87h-.3v87.47h-15V1129.19h19.52Z" fill="gray"/><path d="M3981.41,1239.06a44.48,44.48,0,0,1-18.46-3.55,37.44,37.44,0,0,1-13-9.46,38.71,38.71,0,0,1-7.64-13.54,50.79,50.79,0,0,1-2.5-15.82v-67.5h15v66.59a43.77,43.77,0,0,0,1.36,10.82,27.44,27.44,0,0,0,4.46,9.61,22.45,22.45,0,0,0,8.18,6.81,32,32,0,0,0,25.19,0,22.37,22.37,0,0,0,8.25-6.81,27.45,27.45,0,0,0,4.47-9.61,43.77,43.77,0,0,0,1.36-10.82v-66.59h15v67.5a50.49,50.49,0,0,1-2.5,15.82,38.55,38.55,0,0,1-7.64,13.54,37.49,37.49,0,0,1-13,9.46A44.56,44.56,0,0,1,3981.41,1239.06Z" fill="gray"/><path d="M4103.69,1211.52h.31l31.63-82.33h23.3v107.15h-15v-89.59h-.3l-35.57,89.59h-9.53l-35.42-89.59h-.3v89.59H4048.3V1129.19h23.31Z" fill="gray"/><path d="M1056.36,1051.26h0V672.82l-160.48-.88a15.75,15.75,0,0,0-27.83-7.24l-65.83-28.45a15.26,15.26,0,0,0,.37-3.34,15.76,15.76,0,0,0-31-3.88l-63.14,1.69A15.77,15.77,0,1,0,688.91,653l2.58,113.9a15.76,15.76,0,0,0,4.12,31,15.48,15.48,0,0,0,4.28-.61l34.28,44.08a15.74,15.74,0,0,0-5.37,20.59l-90.23,74.64a15.76,15.76,0,1,0-6.76,30,16.55,16.55,0,0,0,2.35-.19L745,1110.62a15.75,15.75,0,1,0,24.4,19.8l133.08,65.64a15.77,15.77,0,1,0,29.51,11l124.41,30.25V1155.7h0ZM895,680.35l148.59.81L971.37,808.91a15.44,15.44,0,0,0-7.83.05l-71.92-123.4A15.77,15.77,0,0,0,895,680.35ZM974.77,971.9l-56.59,42.51a15.73,15.73,0,0,0-19.81,3.47l-129-65.43a15.3,15.3,0,0,0,.09-1.67,15.67,15.67,0,0,0-5.11-11.59L859.7,837.51a15.73,15.73,0,0,0,23.62-9.11h69a15.73,15.73,0,0,0,24.37,8.6l20,14.38a15.71,15.71,0,0,0,7.44,21.16l-15.68,78.3a15.71,15.71,0,0,0-13.72,21.06Zm-218.6-36.67-7.53-66.06a15.75,15.75,0,0,0,9.84-14.1l94.73-22.93-96.7,103.14Zm246.17-90.18L982,830.44A15.77,15.77,0,0,0,978.7,813l64-113.21-32.17,142.71A15.7,15.7,0,0,0,1002.34,845.05Zm-119-155c.36-.07.7-.16,1.05-.25l71.92,123.4a15.91,15.91,0,0,0-3.9,6.8h-69a15.8,15.8,0,0,0-9.76-10.58Zm-8.84-.86.46.17-9.74,119.37a15.75,15.75,0,0,0-12.79,15l-95.88,23.21a17.16,17.16,0,0,0-1.21-1.84Zm-91.78-41.07a15.61,15.61,0,0,0,15.6-4.4l66.45,28.72a16.41,16.41,0,0,0-.16,2.13,15.55,15.55,0,0,0,.6,4.23L708.59,773.14l-.11-.15ZM699.91,766.93l-2.57-113.15a15.76,15.76,0,0,0,12.95-14.7l61.43-1.64a15.61,15.61,0,0,0,3.73,6.38L701.89,767.63A15,15,0,0,0,699.91,766.93Zm7.21,25.92a15.74,15.74,0,0,0,4.26-10.76c0-.27,0-.53,0-.79l152.23-91.73-115,150.36a15.77,15.77,0,0,0-5.76-1.14ZM734.6,868a15.51,15.51,0,0,0,5.68,2.07l7.54,66.06a15.77,15.77,0,0,0-9.29,10.41H647a15.57,15.57,0,0,0-2-4.43ZM642,962.78a15.67,15.67,0,0,0,5-7.79h91.54a15.76,15.76,0,0,0,11.15,11L752,1106Zm126.12,148.06a15.77,15.77,0,0,0-7.74-4.7l-2.15-130.25,47.58,103.66a15.72,15.72,0,0,0-5.55,12,16.09,16.09,0,0,0,.3,3Zm4,11.59c0-.35.06-.69.06-1a16,16,0,0,0-.3-3l32.44-16.25a15.71,15.71,0,0,0,18.57,3.62l69.52,76Zm160.05,76a15.72,15.72,0,0,0-22.43-10.23l-80.53-88.09A15.71,15.71,0,0,0,813.46,1076L762.1,964.12a15.85,15.85,0,0,0,4.1-3.73l128.61,65.25a16.55,16.55,0,0,0-.21,2.46,15.75,15.75,0,0,0,9.25,14.34l-2.49,52.73a15.77,15.77,0,1,0,13.93,27.8l123,101.3ZM1048,1221.32,920.53,1116.39A15.77,15.77,0,0,0,909.78,1095l2.42-51.2a15.76,15.76,0,0,0,12-23.3l55.47-41.68a15.66,15.66,0,0,0,9.26,3.51l12.09,57.88a15.76,15.76,0,0,0-4.57,24l-13.49,17.47a15.57,15.57,0,0,0-3.57-.42,15.77,15.77,0,1,0,8.33,29.14l60.27,39.76Zm0-81.24-54.53-36a15.69,15.69,0,0,0-3-18.34l13-16.81a15.73,15.73,0,0,0,19.8-9.29H1048Zm0-88.82h-24a15.75,15.75,0,0,0-14.77-13l-12.1-57.88a15.77,15.77,0,0,0-.36-27.93L1012.46,874a15.77,15.77,0,0,0,6.22-29.39L1048,714.77v336.49Z" fill="url(#a)"/><path d="M1359.72,851.8l51.52-66.24,3.4-150.21-91.16-2.44L1223.31,672.8h-168.1v564.32l132.92-37.47,161.93-79.87L1479.68,951Zm-162.86,87.53a66.1,66.1,0,0,1-51.11-24.1,66.25,66.25,0,0,1,102.22,0A66.11,66.11,0,0,1,1196.86,939.33Z" fill="#666"/><polygon points="1055.21 677 1141.21 824.2 1095.77 856.89 1055.21 677" fill="#e6e6e6"/><polygon points="1131.43 1097.61 1098.88 1051.26 1117.6 965.9 1198.56 1026.72 1202.45 1108.97 1055.21 1237.12 1055.21 1151.05 1131.43 1097.61" fill="#e6e6e6"/><polygon points="1359.72 851.8 1223.31 672.8 1240.94 824.2 1359.72 851.8" fill="#e6e6e6"/><polygon points="1350.06 1119.78 1357.2 948.2 1357.2 948.2 1479.68 951.01 1350.06 1119.78" fill="#e6e6e6"/><polygon points="1291.1 1092.19 1350.06 1119.78 1188.13 1199.65 1291.1 1092.19" fill="#b3b3b3"/><polygon points="1141.21 824.2 1223.31 672.8 1240.94 824.2 1141.21 824.2" fill="#b3b3b3"/><polygon points="1359.72 851.8 1357.2 948.2 1240.94 824.2 1359.72 851.8" fill="#b3b3b3"/><polygon points="1411.24 785.56 1223.31 672.8 1323.47 632.91 1411.24 785.56" fill="#b3b3b3"/><polygon points="1098.88 1051.26 1055.21 1051.26 1055.21 1151.05 1131.43 1097.61 1098.88 1051.26"/><path d="M908.6,891.13a66.11,66.11,0,0,0-51.11,24.1,66.25,66.25,0,0,0,102.22,0A66.11,66.11,0,0,0,908.6,891.13Z"/><path d="M1240.94,824.2h-99.73l-45.44,32.69,21.83,109,81,60.82,3.89,82.25-147.24,128.15,132.92-37.47,103-107.46,66.1-144Zm-44.08,115.13a66.1,66.1,0,0,1-51.11-24.1,66.25,66.25,0,0,1,102.22,0A66.11,66.11,0,0,1,1196.86,939.33Z"/></svg>